<svg width="715" height="202" viewBox="0 0 715 202" fill="none" xmlns="http://www.w3.org/2000/svg">
<path d="M228.815 102.697L174.704 157.783C174.316 158.179 174.323 158.814 174.72 159.201L191.84 175.858C192.213 176.221 192.777 176.258 193.168 175.915C200.316 169.638 262.385 114.723 260.5 102C258.624 89.3388 200.454 36.2161 193.233 29.6638C192.827 29.2948 192.201 29.3263 191.83 29.7311L176.638 46.3039C176.28 46.6946 176.289 47.2969 176.658 47.6769L228.818 101.299C229.197 101.689 229.196 102.31 228.815 102.697Z" fill="#53EBF9"/>
<path d="M31.7271 103.197L85.8379 158.283C86.2263 158.679 86.2191 159.314 85.8219 159.701L68.7021 176.358C68.3291 176.721 67.765 176.758 67.374 176.415C60.2257 170.138 -1.84288 115.223 0.0420552 102.5C1.9178 89.8388 60.0877 36.7161 67.3089 30.1638C67.7155 29.7948 68.3412 29.8263 68.7122 30.2311L83.904 46.8039C84.2621 47.1946 84.2532 47.7969 83.8836 48.1769L31.7236 101.799C31.3447 102.189 31.3462 102.81 31.7271 103.197Z" fill="#53EBF9"/>
<path d="M620 55.5V35.5C620 34.9477 620.448 34.5 621 34.5H713.5C714.052 34.5 714.5 34.9477 714.5 35.5V55.5C714.5 56.0523 714.052 56.5 713.5 56.5H679.5C678.948 56.5 678.5 56.9477 678.5 57.5V165.5C678.5 166.052 678.052 166.5 677.5 166.5H657C656.448 166.5 656 166.052 656 165.5V57.5C656 56.9477 655.552 56.5 655 56.5H621C620.448 56.5 620 56.0523 620 55.5Z" fill="#53EBF9"/>
<path d="M321.392 36H300C299.448 36 299 36.4477 299 37V165.5C299 166.052 299.448 166.5 300 166.5H319C319.552 166.5 320 166.052 320 165.5V78.5181C320 77.4759 321.395 77.1288 321.883 78.0494L358.105 146.314C358.483 147.026 359.506 147.021 359.877 146.304L395.112 78.1524C395.593 77.2215 397 77.5637 397 78.6116V165.5C397 166.052 397.448 166.5 398 166.5H417C417.552 166.5 418 166.052 418 165.5V37C418 36.4477 417.552 36 417 36H396.112C395.737 36 395.393 36.2106 395.222 36.5453L359.885 105.767C359.515 106.492 358.48 106.495 358.106 105.772L322.28 36.5404C322.108 36.2084 321.765 36 321.392 36Z" fill="#53EBF9"/>
<path d="M491.392 36H470C469.448 36 469 36.4477 469 37V165.5C469 166.052 469.448 166.5 470 166.5H489C489.552 166.5 490 166.052 490 165.5V78.5181C490 77.4759 491.395 77.1288 491.883 78.0494L528.105 146.314C528.483 147.026 529.506 147.021 529.877 146.304L565.112 78.1524C565.593 77.2215 567 77.5637 567 78.6116V165.5C567 166.052 567.448 166.5 568 166.5H587C587.552 166.5 588 166.052 588 165.5V37C588 36.4477 587.552 36 587 36H566.112C565.737 36 565.393 36.2106 565.222 36.5453L529.885 105.767C529.515 106.492 528.48 106.495 528.106 105.772L492.28 36.5404C492.108 36.2084 491.765 36 491.392 36Z" fill="#53EBF9"/>
<path d="M457 154C457 161.456 450.956 167.5 443.5 167.5C436.044 167.5 430 161.456 430 154C430 146.544 436.044 140.5 443.5 140.5C450.956 140.5 457 146.544 457 154Z" fill="#53EBF9"/>
<path d="M163.697 0H137.773C137.318 0 136.92 0.307397 136.805 0.747872L84.8263 200.248C84.6612 200.881 85.1393 201.5 85.794 201.5H110.233C110.685 201.5 111.082 201.196 111.199 200.759L164.663 1.25886C164.833 0.623725 164.354 0 163.697 0Z" fill="#53EBF9"/>
</svg>
